<svg width="696" height="348" viewBox="0 0 696 348" fill="none" xmlns="http://www.w3.org/2000/svg">
<path d="M242.5 72.9002L268.7 46.7002V231.7H242.5V72.9002Z" fill="#00A1DA"/>
<path d="M341.5 205.2C346.5 205.2 351.3 204.2 355.9 202.3C360.4 200.4 364.3 197.8 367.6 194.5C370.9 191.2 373.5 187.4 375.4 182.9C377.3 178.4 378.3 173.7 378.3 168.7C378.3 163.7 377.3 158.9 375.4 154.3C373.5 149.8 370.9 145.9 367.6 142.6C364.3 139.3 360.4 136.7 355.9 134.8C351.4 132.9 346.6 131.9 341.5 131.9C336.5 131.9 331.7 132.9 327.1 134.8C322.6 136.7 318.6 139.3 315.3 142.6C311.9 145.9 309.3 149.8 307.4 154.3C305.5 158.8 304.5 163.6 304.5 168.7C304.5 173.8 305.5 178.5 307.4 182.9C309.3 187.4 312 191.2 315.3 194.5C318.7 197.8 322.6 200.4 327.1 202.3C331.7 204.2 336.5 205.2 341.5 205.2ZM341.5 105.7C350.1 105.7 358.2 107.3 365.8 110.6C373.4 113.9 380.1 118.4 385.8 124.1C391.5 129.8 396 136.5 399.4 144.1C402.8 151.7 404.4 159.9 404.4 168.7C404.4 177.4 402.7 185.6 399.4 193.3C396 200.9 391.5 207.6 385.8 213.2C380.1 218.8 373.4 223.3 365.8 226.6C358.2 229.9 350.1 231.5 341.5 231.5C332.8 231.5 324.6 229.9 316.9 226.6C309.3 223.3 302.6 218.9 297 213.2C291.4 207.6 286.9 200.9 283.6 193.3C280.3 185.7 278.7 177.5 278.7 168.7C278.7 160 280.3 151.8 283.6 144.1C286.9 136.5 291.3 129.8 297 124.1C302.6 118.4 309.3 113.9 316.9 110.6C324.6 107.3 332.8 105.7 341.5 105.7Z" fill="#007BB3"/>
<path d="M477.3 205.2C482.3 205.2 487.1 204.2 491.7 202.3C496.2 200.4 500.1 197.8 503.4 194.5C506.7 191.2 509.3 187.4 511.2 182.9C513.1 178.4 514.1 173.7 514.1 168.7C514.1 163.7 513.1 158.9 511.2 154.3C509.3 149.8 506.7 145.9 503.4 142.6C500.1 139.3 496.2 136.7 491.7 134.8C487.2 132.9 482.4 131.9 477.3 131.9C472.3 131.9 467.5 132.9 462.9 134.8C458.4 136.7 454.4 139.3 451.1 142.6C447.7 145.9 445.1 149.8 443.2 154.3C441.3 158.8 440.3 163.6 440.3 168.7C440.3 173.8 441.3 178.5 443.2 182.9C445.1 187.4 447.8 191.2 451.1 194.5C454.5 197.8 458.4 200.4 462.9 202.3C467.5 204.2 472.3 205.2 477.3 205.2ZM477.3 105.7C485.9 105.7 494 107.3 501.6 110.6C509.2 113.9 515.9 118.4 521.6 124.1C527.3 129.8 531.8 136.5 535.2 144.1C538.6 151.7 540.2 159.9 540.2 168.7C540.2 177.4 538.5 185.6 535.2 193.3C531.8 200.9 527.3 207.6 521.6 213.2C515.9 218.8 509.2 223.3 501.6 226.6C494 229.9 485.9 231.5 477.3 231.5C468.6 231.5 460.4 229.9 452.7 226.6C445.1 223.3 438.4 218.9 432.8 213.2C427.2 207.6 422.7 200.9 419.4 193.3C416.1 185.7 414.5 177.5 414.5 168.7C414.5 160 416.1 151.8 419.4 144.1C422.7 136.5 427.1 129.8 432.8 124.1C438.4 118.4 445.1 113.9 452.7 110.6C460.4 107.3 468.6 105.7 477.3 105.7Z" fill="#005B80"/>
<path d="M613.2 231.7C607.7 231.7 602.5 231.1 597.8 229.9L604.1 204.4C606.8 205.4 609.8 205.9 613.2 205.9C618.2 205.9 623 204.9 627.6 203C632.1 201.1 636.1 198.4 639.4 195.1C642.8 191.7 645.4 187.8 647.3 183.3C649.2 178.8 650.2 173.9 650.2 168.7C650.2 163.7 649.2 158.9 647.3 154.5C645.4 150 642.7 146.1 639.4 142.8C636 139.4 632.1 136.8 627.6 134.9C623.1 133 618.3 132 613.2 132C608.2 132 603.4 133 598.8 134.9C594.3 136.8 590.3 139.5 587 142.8C583.6 146.2 581 150.1 579.1 154.5C577.2 159 576.2 163.7 576.2 168.7V169.2V237.5V290.4L550.5 264.4V195.9V169.2V168.7C550.5 160.1 552.1 152 555.4 144.4C558.7 136.8 563.1 130.1 568.8 124.4C574.4 118.7 581.1 114.2 588.7 110.8C596.3 107.4 604.5 105.8 613.3 105.8C621.9 105.8 630 107.5 637.7 110.8C645.4 114.2 652.1 118.7 657.9 124.4C663.6 130.1 668.1 136.8 671.5 144.4C674.9 152 676.5 160.1 676.5 168.7C676.5 177.4 674.8 185.6 671.5 193.3C668.1 200.9 663.6 207.6 657.9 213.3C652.2 219 645.5 223.5 637.7 226.8C629.9 230 621.7 231.7 613.2 231.7Z" fill="#003E53"/>
<path d="M527.7 257.6C529.6 258.2 531.3 258.9 532.8 259.5C534.3 260.2 535.6 260.9 536.7 261.9C537.8 262.8 538.6 263.9 539.2 265.2C539.8 266.5 540.1 268.1 540.1 269.9C540.1 271.9 539.7 273.7 538.8 275.3C538 276.9 536.7 278.3 535.1 279.4C533.5 280.5 531.5 281.4 529.1 282C526.7 282.6 524 282.9 521 282.9C518.2 282.9 515.7 282.7 513.6 282.3C511.5 281.9 509.2 281.3 506.7 280.6C506.9 279.3 507.2 277.9 507.6 276.4C508.1 274.9 508.6 273.4 509.2 271.9C513.3 273.4 516.9 274.1 520 274.1C522.3 274.1 524.1 273.8 525.4 273.2C526.7 272.6 527.3 271.6 527.3 270.2C527.3 269.6 527.2 269.1 526.9 268.7C526.6 268.3 526.3 267.9 525.8 267.6C525.3 267.3 524.8 267 524.3 266.8C523.7 266.6 523.2 266.4 522.6 266.2L518.8 265C517.2 264.5 515.7 263.9 514.4 263.3C513.1 262.6 511.9 261.8 511 260.9C510.1 260 509.3 258.9 508.8 257.7C508.3 256.5 508 255.1 508 253.5C508 251.5 508.4 249.8 509.2 248.2C510 246.7 511.1 245.4 512.6 244.3C514.1 243.2 515.8 242.4 517.9 241.9C520 241.4 522.3 241.1 524.9 241.1C527.2 241.1 529.4 241.3 531.6 241.7C533.7 242.1 536 242.6 538.5 243.3C538.3 244.5 538 245.8 537.5 247.3C537 248.7 536.4 250.1 535.7 251.4C534.5 251 533.2 250.6 531.6 250.1C530 249.7 528.1 249.4 525.7 249.4C525 249.4 524.3 249.5 523.6 249.6C522.9 249.7 522.4 249.9 521.8 250.1C521.3 250.3 520.9 250.7 520.5 251.1C520.2 251.5 520 252.1 520 252.7C520 253.8 520.4 254.6 521.3 255.1C522.2 255.6 523.2 256.1 524.3 256.4L527.7 257.6ZM482.8 252.5L478.3 267C479.1 267.2 479.8 267.3 480.5 267.4C481.2 267.5 481.9 267.6 482.6 267.6C483.4 267.6 484.1 267.6 484.9 267.5C485.6 267.4 486.4 267.3 487.2 267.1L482.8 252.5ZM473.3 282.2C472.3 282.3 471.3 282.5 470.5 282.5C469.6 282.6 468.8 282.6 468 282.6C467.2 282.6 466.3 282.6 465.2 282.5C464.1 282.4 463 282.3 461.7 282.1L476.8 241.9C478 241.8 479.1 241.7 480.1 241.6C481.1 241.5 482.1 241.5 483.2 241.5C484.1 241.5 485 241.5 486 241.6C487 241.7 488.2 241.8 489.5 241.9L504.4 282.1C501.8 282.4 499.6 282.6 497.6 282.6C496.7 282.6 495.8 282.6 494.9 282.5C494 282.4 493 282.3 492 282.2L489.4 274.4C488.1 274.7 486.9 274.9 485.8 275.1C484.7 275.3 483.5 275.3 482.4 275.3C481.4 275.3 480.3 275.2 479.2 275.1C478.1 275 477 274.8 475.8 274.5L473.3 282.2ZM412.7 242C413.6 241.9 414.7 241.8 415.8 241.7C416.9 241.6 417.9 241.6 418.9 241.6C419.8 241.6 420.8 241.6 421.8 241.7C422.9 241.8 423.8 241.9 424.7 242L434.3 262.9L444.2 242C445.1 241.9 446 241.8 446.9 241.7C447.8 241.6 448.7 241.6 449.6 241.6C450.5 241.6 451.5 241.6 452.5 241.7C453.5 241.8 454.5 241.9 455.4 242L457.7 282.2C457 282.3 456.2 282.4 455.3 282.5C454.4 282.6 453.3 282.7 451.8 282.7C450.2 282.7 448.4 282.5 446.2 282.2L445.3 258.9L437.9 274.3C437.1 274.4 436.3 274.5 435.5 274.6C434.7 274.7 433.9 274.7 433.3 274.7C432.6 274.7 431.9 274.7 431.2 274.6C430.5 274.5 429.7 274.4 429 274.3L422.4 259.2L421.7 282.3C419.8 282.6 418 282.8 416.3 282.8C414.7 282.8 412.9 282.6 410.8 282.3L412.7 242ZM401.3 261.2C401.3 262.5 401.1 264 400.7 265.6H387.7V273.6H404.7C405.1 275.2 405.3 276.6 405.3 277.9C405.3 279.3 405.1 280.8 404.7 282.3H375.8V241.9H404.3C404.5 242.7 404.6 243.5 404.7 244.2C404.8 244.9 404.8 245.6 404.8 246.2C404.8 247.4 404.6 248.9 404.3 250.6H387.7V256.8H400.7C401.1 258.5 401.3 259.9 401.3 261.2ZM346.8 250.7H335.5C335.1 249.1 334.9 247.6 334.9 246.3C334.9 245.1 335.1 243.6 335.5 242H370C370.2 242.8 370.3 243.6 370.4 244.3C370.5 245 370.5 245.7 370.5 246.3C370.5 247.5 370.3 249 370 250.7H358.7V282.2C356.3 282.5 354.3 282.7 352.8 282.7C351.1 282.7 349.1 282.5 346.8 282.2V250.7ZM320.5 257.6C322.4 258.2 324.1 258.9 325.6 259.5C327.1 260.2 328.4 260.9 329.5 261.9C330.6 262.8 331.4 263.9 332 265.2C332.6 266.5 332.9 268.1 332.9 269.9C332.9 271.9 332.5 273.7 331.7 275.3C330.9 276.9 329.6 278.3 328 279.4C326.4 280.5 324.4 281.4 322 282C319.6 282.6 316.9 282.9 313.9 282.9C311.1 282.9 308.6 282.7 306.5 282.3C304.4 281.9 302.1 281.3 299.6 280.6C299.8 279.3 300.1 277.9 300.5 276.4C301 274.9 301.5 273.4 302.1 271.9C306.2 273.4 309.8 274.1 312.9 274.1C315.2 274.1 317 273.8 318.3 273.2C319.6 272.6 320.2 271.6 320.2 270.2C320.2 269.6 320.1 269.1 319.8 268.7C319.5 268.3 319.2 267.9 318.7 267.6C318.2 267.3 317.7 267 317.2 266.8C316.6 266.6 316.1 266.4 315.5 266.2L311.7 265C310.1 264.5 308.6 263.9 307.3 263.3C306 262.6 304.8 261.8 303.9 260.9C303 260 302.2 258.9 301.7 257.7C301.2 256.5 300.9 255.1 300.9 253.5C300.9 251.5 301.3 249.8 302.1 248.2C302.9 246.7 304 245.4 305.5 244.3C307 243.2 308.7 242.4 310.8 241.9C312.9 241.4 315.2 241.1 317.8 241.1C320.1 241.1 322.3 241.3 324.5 241.7C326.6 242.1 328.9 242.6 331.4 243.3C331.2 244.5 330.9 245.8 330.4 247.3C329.9 248.7 329.3 250.1 328.6 251.4C327.4 251 326.1 250.6 324.5 250.1C322.9 249.7 321 249.4 318.6 249.4C317.9 249.4 317.2 249.5 316.5 249.6C315.8 249.7 315.3 249.9 314.7 250.1C314.2 250.3 313.8 250.7 313.5 251.1C313.2 251.5 313 252.1 313 252.7C313 253.8 313.4 254.6 314.3 255.1C315.2 255.6 316.2 256.1 317.3 256.4L320.5 257.6ZM287.5 282.7C285.8 282.7 283.8 282.5 281.5 282.2V242C282.7 241.9 283.8 241.7 284.8 241.7C285.8 241.6 286.7 241.6 287.4 241.6C288.2 241.6 289.1 241.6 290.1 241.7C291.1 241.8 292.2 241.9 293.4 242V282.2C291.1 282.5 289.1 282.7 287.5 282.7ZM262.3 257.6C264.2 258.2 265.9 258.9 267.4 259.5C268.9 260.2 270.2 260.9 271.3 261.9C272.4 262.8 273.2 263.9 273.8 265.2C274.4 266.5 274.7 268.1 274.7 269.9C274.7 271.9 274.3 273.7 273.5 275.3C272.7 276.9 271.4 278.3 269.8 279.4C268.2 280.5 266.2 281.4 263.8 282C261.4 282.6 258.7 282.9 255.7 282.9C252.9 282.9 250.4 282.7 248.3 282.3C246.2 281.9 243.9 281.3 241.4 280.6C241.6 279.3 241.9 277.9 242.3 276.4C242.8 274.9 243.3 273.4 243.9 271.9C248 273.4 251.6 274.1 254.7 274.1C257 274.1 258.8 273.8 260.1 273.2C261.4 272.6 262 271.6 262 270.2C262 269.6 261.9 269.1 261.6 268.7C261.3 268.3 261 267.9 260.5 267.6C260 267.3 259.5 267 259 266.8C258.4 266.6 257.9 266.4 257.3 266.2L253.5 265C251.9 264.5 250.4 263.9 249.1 263.3C247.8 262.6 246.6 261.8 245.7 260.9C244.8 260 244 258.9 243.5 257.7C243 256.5 242.7 255.1 242.7 253.5C242.7 251.5 243.1 249.8 243.9 248.2C244.7 246.7 245.8 245.4 247.3 244.3C248.8 243.2 250.5 242.4 252.6 241.9C254.7 241.4 257 241.1 259.6 241.1C261.9 241.1 264.1 241.3 266.3 241.7C268.4 242.1 270.7 242.6 273.2 243.3C273 244.5 272.7 245.8 272.2 247.3C271.7 248.7 271.1 250.1 270.4 251.4C269.2 251 267.9 250.6 266.3 250.1C264.7 249.7 262.8 249.4 260.4 249.4C259.7 249.4 259 249.5 258.3 249.6C257.6 249.7 257.1 249.9 256.5 250.1C256 250.3 255.6 250.7 255.3 251.1C255 251.5 254.8 252.1 254.8 252.7C254.8 253.8 255.2 254.6 256.1 255.1C257 255.6 258 256.1 259.1 256.4L262.3 257.6Z" fill="#656261"/>
<path fill-rule="evenodd" clip-rule="evenodd" d="M81.4 242.4C71.9 253.1 65.8 269.1 67.6 291.3C69 309.5 78 325.7 87.9 334.1C93.3 330.7 191.3 233.4 196.7 224.4C221.1 184.1 199 138.9 177.9 130C184.1 153.9 99.8 221 81.4 242.4Z" fill="#005B80"/>
<path fill-rule="evenodd" clip-rule="evenodd" d="M95.7 142.7C108.2 158.4 122.5 173.2 139.8 186.1C147.7 178.9 182.7 150.1 185 134.7C177.3 125.9 160.7 121.2 145.7 121.1C125.3 120.9 109.3 128.2 95.7 142.7Z" fill="#003E53"/>
<path fill-rule="evenodd" clip-rule="evenodd" d="M133.2 94.7C142.7 84 148.8 68 147 45.8C145.6 27.6 136.6 11.4 126.7 3C121.3 6.4 23.4 103.7 17.9 112.7C-6.49996 153 15.6 198.2 36.7 207.1C30.6 183.2 114.8 116.1 133.2 94.7Z" fill="#00A1DA"/>
<path fill-rule="evenodd" clip-rule="evenodd" d="M118.9 194.4C106.4 178.7 92.1 163.9 74.8 151C66.9 158.2 31.9 187 29.6 202.4C37.3 211.2 53.9 215.9 68.9 216C89.3 216.2 105.3 208.9 118.9 194.4Z" fill="#007BB3"/>
</svg>
